<?xml version="1.0" encoding="UTF-8" standalone="no"?>
<svg
   fill="none"
   height="344"
   viewBox="204.925 153.577 92.732331 104.2481"
   width="306"
   version="1.1"
   id="svg32"
   sodipodi:docname="CS.svg"
   inkscape:version="1.2.1 (ef4d3fba62, 2022-07-19, custom)"
   xmlns:inkscape="http://www.inkscape.org/namespaces/inkscape"
   xmlns:sodipodi="http://sodipodi.sourceforge.net/DTD/sodipodi-0.dtd"
   xmlns="http://www.w3.org/2000/svg"
   xmlns:svg="http://www.w3.org/2000/svg">
  <defs
     id="defs36" />
  <sodipodi:namedview
     id="namedview34"
     pagecolor="#ffffff"
     bordercolor="#000000"
     borderopacity="0.25"
     inkscape:showpageshadow="2"
     inkscape:pageopacity="0.0"
     inkscape:pagecheckerboard="0"
     inkscape:deskcolor="#d1d1d1"
     showgrid="false"
     showguides="false"
     inkscape:zoom="1.077065"
     inkscape:cx="95.63025"
     inkscape:cy="199.15232"
     inkscape:window-width="1300"
     inkscape:window-height="704"
     inkscape:window-x="0"
     inkscape:window-y="0"
     inkscape:window-maximized="1"
     inkscape:current-layer="svg32">
    <sodipodi:guide
       position="63.665302,134.48907"
       orientation="0,-1"
       id="guide222"
       inkscape:locked="false" />
    <sodipodi:guide
       position="38.864434,116.35316"
       orientation="0,-1"
       id="guide224"
       inkscape:locked="false" />
  </sodipodi:namedview>
  <path
     d="m 297.39571,184.3503 c 0,-1.73464 -0.36966,-3.29869 -1.1375,-4.60688 -0.73932,-1.30807 -1.84843,-2.38866 -3.32706,-3.24178 -12.28496,-7.08094 -24.5983,-14.16177 -36.88326,-21.24272 -3.32719,-1.90533 -6.51219,-1.84842 -9.81088,0.0853 -4.89124,2.87224 -29.40425,16.92021 -36.68416,21.15742 -3.01443,1.73462 -4.46469,4.40779 -4.46469,7.87717 v 42.76968 c 0,1.70623 0.36966,3.21339 1.08059,4.52158 0.73945,1.33658 1.87694,2.47407 3.3841,3.35559 7.30842,4.2372 31.79292,18.25679 36.68416,21.15742 3.29869,1.93335 6.51208,2.01864 9.81088,0.0853 12.28496,-7.10934 24.5983,-14.16178 36.88326,-21.24272 1.53554,-0.88152 2.64464,-1.99061 3.38396,-3.35559 0.71094,-1.30819 1.0806,-2.81535 1.0806,-4.52158 z"
     fill="#9a4993"
     id="path18"
     style="stroke-width:0.121839" />
  <path
     d="m 251.35573,205.59301 -45.24388,26.04855 c 0.73944,1.33658 1.87694,2.47407 3.3841,3.35571 7.30842,4.23708 31.79292,18.25667 36.68416,21.1573 3.29868,1.93384 6.5122,2.01912 9.81088,0.0853 12.28495,-7.10934 24.5983,-14.16177 36.88326,-21.24259 1.53553,-0.88164 2.64464,-1.99062 3.38396,-3.35571 z"
     fill="#6a1577"
     id="path20"
     style="stroke-width:0.121839" />
  <path
     d="m 237.96167,213.29948 c 2.64478,4.60687 7.59279,7.70659 13.25188,7.70659 5.71585,0 10.69238,-3.12811 13.30865,-7.79188 l -13.16647,-7.62118 z"
     fill="#6a1577"
     id="path22"
     style="stroke-width:0.121839" />
  <path
     d="m 297.39583,184.3503 c 0,-1.73464 -0.36978,-3.29869 -1.1375,-4.60688 l -44.9026,25.84959 44.95938,26.04867 c 0.71094,-1.30819 1.08072,-2.81534 1.08072,-4.52158 z"
     fill="#813084"
     id="path24"
     style="stroke-width:0.121839" />
  <g
     fill="#ffffff"
     id="g30"
     transform="matrix(0.12183949,0,0,0.12183949,180.12021,134.64186)">
    <path
       d="m 692.731,644.884 c -21.472,38.044 -62.317,63.952 -109.231,63.952 -46.68,0 -87.291,-25.441 -108.764,-63.252 -10.503,-18.438 -16.572,-39.444 -16.572,-62.084 0,-69.32 56.016,-125.336 125.336,-125.336 46.213,0 86.592,25.207 108.298,62.551 L 801.262,457.697 C 757.617,382.543 676.393,331.895 583.267,331.895 c -139.107,0 -251.605,112.732 -251.605,251.605 0,45.513 12.136,88.459 33.376,125.336 43.412,75.388 125.102,126.269 218.462,126.269 93.594,0 175.284,-51.114 218.696,-126.969 z M 831.137,523.983 h -24.974 v 120.668 h 24.974 z m 55.316,0 h -24.974 v 120.668 h 24.974 z"
       id="path26" />
    <path
       d="M 906.759,544.289 H 786.091 v 24.974 h 120.668 z m 0,55.082 H 786.091 v 24.974 h 120.668 z"
       id="path28" />
  </g>
</svg>
