<?xml version="1.0" encoding="UTF-8" standalone="no"?>
<!-- Created with Inkscape (http://www.inkscape.org/) -->

<svg
   version="1.1"
   id="svg9"
   width="266.66666"
   height="266.66666"
   viewBox="0 0 266.66666 266.66666"
   sodipodi:docname="redirect.svg"
   inkscape:version="1.2.2 (b0a8486541, 2022-12-01)"
   xmlns:inkscape="http://www.inkscape.org/namespaces/inkscape"
   xmlns:sodipodi="http://sodipodi.sourceforge.net/DTD/sodipodi-0.dtd"
   xmlns="http://www.w3.org/2000/svg"
   xmlns:svg="http://www.w3.org/2000/svg">
  <sodipodi:namedview
     id="namedview6"
     pagecolor="#ffffff"
     bordercolor="#000000"
     borderopacity="0.25"
     inkscape:showpageshadow="2"
     inkscape:pageopacity="0.0"
     inkscape:pagecheckerboard="0"
     inkscape:deskcolor="#d1d1d1"
     showgrid="false"
     inkscape:zoom="1.7512501"
     inkscape:cx="178.72947"
     inkscape:cy="134.18986"
     inkscape:window-width="1280"
     inkscape:window-height="647"
     inkscape:window-x="0"
     inkscape:window-y="0"
     inkscape:window-maximized="1"
     inkscape:current-layer="svg9" />
  <defs
     id="defs13" />
  <g
     id="g15">
    <path
       style="fill:#000000;stroke-width:1.33333"
       d="m 34.339243,234.49011 c -2.37877,-1.17268 -5.52877,-4.07984 -7,-6.46035 -2.60057,-4.20781 -2.67484,-6.56744 -2.66999,-84.83748 0.005,-77.498471 0.10232,-80.668909 2.6077,-84.777877 1.4315,-2.347732 4.57926,-5.347732 6.99502,-6.666667 3.81591,-2.083374 8.62467,-2.452984 36.64468,-2.81657 l 32.252357,-0.418507 9.74762,9.376138 9.74762,9.37614 -38.999987,0.04237 -39,0.04237 V 142.683 218.01633 h 79.312227 79.31224 l 0.35442,-36.68429 0.35443,-36.68429 9,8.12374 9,8.12376 v 31.29341 c 0,25.64459 -0.37271,32.01415 -2.06473,35.28617 -1.1356,2.19601 -3.9856,5.16397 -6.33334,6.59546 -4.11745,2.51056 -7.29017,2.60183 -89.60193,2.57735 -75.476877,-0.0224 -85.832877,-0.27165 -89.658337,-2.15753 z m 88.981507,-91.47379 c -10.25733,-9.71666 -18.65122,-18.0723 -18.6531,-18.56807 -0.002,-0.49578 13.17778,-13.39578 29.28811,-28.666656 l 29.2915,-27.765257 -19.62484,-18.930987 -19.62484,-18.930989 59,-0.06901 59,-0.06901 V 86.304126 142.5919 l -7.66667,-7.27722 c -4.21666,-4.00248 -12.89966,-12.35254 -19.29554,-18.55571 l -11.62888,-11.27849 -3.67794,3.26792 c -2.02286,1.79736 -15.16233,14.21792 -29.19882,27.60126 -14.03649,13.38333 -26.20453,24.33333 -27.04009,24.33333 -0.83556,0 -9.91156,-7.95 -20.16889,-17.66667 z"
       id="path181" />
  </g>
</svg>
