<?xml version="1.0" encoding="UTF-8" standalone="no"?>
<!-- Created with Inkscape (http://www.inkscape.org/) -->

<svg
   version="1.1"
   id="svg2"
   width="192"
   height="192"
   viewBox="0 0 192 192"
   sodipodi:docname="github.svg"
   inkscape:version="1.2.2 (b0a8486541, 2022-12-01)"
   xmlns:inkscape="http://www.inkscape.org/namespaces/inkscape"
   xmlns:sodipodi="http://sodipodi.sourceforge.net/DTD/sodipodi-0.dtd"
   xmlns="http://www.w3.org/2000/svg"
   xmlns:svg="http://www.w3.org/2000/svg">
  <defs
     id="defs6" />
  <sodipodi:namedview
     id="namedview4"
     pagecolor="#ffffff"
     bordercolor="#000000"
     borderopacity="0.25"
     inkscape:showpageshadow="2"
     inkscape:pageopacity="0.0"
     inkscape:pagecheckerboard="0"
     inkscape:deskcolor="#d1d1d1"
     showgrid="false"
     inkscape:zoom="1.7198899"
     inkscape:cx="69.481191"
     inkscape:cy="104.65786"
     inkscape:window-width="1280"
     inkscape:window-height="647"
     inkscape:window-x="0"
     inkscape:window-y="0"
     inkscape:window-maximized="1"
     inkscape:current-layer="g8" />
  <g
     inkscape:groupmode="layer"
     inkscape:label="Image"
     id="g8">
    <ellipse
       style="fill:#ffffff;stroke-width:0.91975"
       id="path280"
       cx="96"
       cy="96"
       rx="88.119904"
       ry="88.472481" />
    <path
       style="fill:#1a1a1a"
       d="M 58.520921,166.87329 C 37.174963,156.18713 21.87172,136.70107 16.205144,112.9914 13.452667,101.47467 13.998701,81.968985 17.369589,71.394566 26.210322,43.661327 47.662106,23.277956 75.870035,15.807753 c 11.099656,-2.939482 28.794125,-2.928705 39.999995,0.02436 30.76394,8.10718 53.63441,31.89838 59.9209,62.333228 7.65745,37.072079 -10.9086,73.762279 -45.6816,90.275899 -4.63657,2.2019 -8.68209,3.47536 -10.41124,3.27728 l -2.82806,-0.32395 -0.5,-16.5 c -0.44561,-14.70501 -0.74051,-16.90695 -2.71083,-20.24078 l -2.21084,-3.74078 2.71084,-0.53934 c 22.18594,-4.41408 31.69506,-14.22797 33.81259,-34.8963 0.81275,-7.932889 -0.90836,-16.09786 -4.63046,-21.967004 -2.66707,-4.20553 -2.88205,-5.176292 -2.32553,-10.500837 0.36392,-3.481757 0.1022,-7.997089 -0.64377,-11.106623 l -1.25698,-5.239705 -4.49142,0.506247 c -2.47028,0.278436 -7.7318,2.150983 -11.69227,4.161216 -6.69268,3.397029 -7.51351,3.582908 -11.6311,2.633881 -5.72019,-1.318401 -25.140263,-1.318401 -30.860459,0 -4.117583,0.949027 -4.938414,0.763148 -11.631094,-2.633881 -3.960472,-2.010233 -9.247238,-3.885625 -11.748369,-4.167539 l -4.547511,-0.51257 -1.186653,4.372005 c -0.694483,2.558693 -0.954325,7.186859 -0.626495,11.158788 0.501709,6.078623 0.302741,7.16611 -1.906843,10.422113 -4.024016,5.929719 -5.77282,13.596252 -5.097894,22.348519 1.111773,14.41718 7.421253,25.24658 17.762389,30.48683 4.206025,2.13135 7.050457,2.99565 16.274954,4.94527 2.598518,0.5492 2.725344,0.76184 1.376427,2.30771 -0.817202,0.93653 -2.023431,3.37761 -2.680509,5.42462 -0.978984,3.04986 -1.859431,3.90648 -4.876428,4.74443 -4.983716,1.38419 -6.463829,1.30479 -11.230595,-0.60249 -2.815879,-1.1267 -5.347249,-3.33901 -8.128796,-7.10426 -4.352129,-5.89126 -10.702464,-9.62664 -14.622857,-8.60144 -3.105157,0.81202 -2.792225,1.6153 2.233635,5.73361 2.675245,2.19216 5.442574,5.76641 6.978805,9.01374 4.471974,9.45297 11.025914,13.11806 22.186983,12.40737 l 6.401085,-0.40759 v 8.0974 c 0,12.48253 -1.730255,13.04488 -16.849114,5.47611 z m 7.349113,-20.97872 c 0.339919,-0.55 1.041476,-1 1.559017,-1 0.517541,0 0.940983,0.45 0.940983,1 0,0.55 -0.701558,1 -1.559017,1 -0.857459,0 -1.280902,-0.45 -0.940983,-1 z m 6.193854,0.36052 c -0.798931,-0.79893 0.104186,-2.36052 1.365164,-2.36052 0.517541,0 0.940983,0.675 0.940983,1.5 0,1.54641 -1.179963,1.9867 -2.306147,0.86052 z m -12.893854,-1.56052 c 0.933333,-0.93333 1.466667,-0.93333 2.4,0 0.933333,0.93333 0.666667,1.2 -1.2,1.2 -1.866667,0 -2.133333,-0.26667 -1.2,-1.2 z m -5.8,-2.8 c 0,-0.55 0.423442,-1 0.940983,-1 0.517541,0 1.219098,0.45 1.559017,1 0.339919,0.55 -0.08352,1 -0.940983,1 -0.857459,0 -1.559017,-0.45 -1.559017,-1 z m -3.417051,-3.86579 c -0.430771,-0.697 -0.513159,-1.53733 -0.183085,-1.86741 0.894961,-0.89496 1.870768,0.4213 1.387387,1.87145 -0.338725,1.01617 -0.574267,1.01538 -1.204302,-0.004 z m -3.582949,-5.13421 c 0,-0.55 0.45,-1 1,-1 0.55,0 1,0.45 1,1 0,0.55 -0.45,1 -1,1 -0.55,0 -1,-0.45 -1,-1 z"
       id="path170" />
  </g>
</svg>
